<?xml version="1.0" encoding="utf-8"?>
<!-- Generator: Adobe Illustrator 23.0.2, SVG Export Plug-In . SVG Version: 6.00 Build 0)  -->
<svg version="1.1" id="Layer_1" xmlns="http://www.w3.org/2000/svg" xmlns:xlink="http://www.w3.org/1999/xlink" x="0px" y="0px"
	 viewBox="0 0 40 40" style="enable-background:new 0 0 40 40;" xml:space="preserve">
<style type="text/css">
	.st0{fill-rule:evenodd;clip-rule:evenodd;fill:#1E3360;}
</style>
<path class="st0" d="M0,8.7l19,10.2c0.6,0.2,1.3,0.2,2,0L40,8.8v29.8c0,0.8-0.7,1.5-1.5,1.5h-37C0.7,40,0,39.3,0,38.5V8.7z"/>
<path class="st0" d="M0,2v1.6c0,1.2,0.7,2.2,1.8,2.6L19,15.6c0.6,0.2,1.3,0.2,2,0l17.2-9.4C39.3,5.8,40,4.8,40,3.6V2
	c0-1.1-0.9-2-2-2H2C0.9,0,0,0.9,0,2z"/>
</svg>
