<?xml version="1.0" encoding="utf-8"?>
<!-- Generator: Adobe Illustrator 23.0.2, SVG Export Plug-In . SVG Version: 6.00 Build 0)  -->
<svg version="1.1" id="Layer_1" xmlns="http://www.w3.org/2000/svg" xmlns:xlink="http://www.w3.org/1999/xlink" x="0px" y="0px"
	 viewBox="0 0 25.1 25" style="enable-background:new 0 0 25.1 25;" xml:space="preserve">
<path d="M23.2,0H1.9C0.8,0,0,0.8,0,1.8v21.4c0,1,0.8,1.8,1.9,1.8h21.3c1,0,1.9-0.8,1.9-1.8V1.8C25.1,0.8,24.2,0,23.2,0z M7.4,21.3
	H3.7V9.4h3.7V21.3z M5.6,7.7c-1.2,0-2.2-1-2.2-2.2s1-2.2,2.2-2.2c1.2,0,2.2,1,2.2,2.2S6.8,7.7,5.6,7.7z M21.3,21.3h-3.7v-5.8
	c0-1.4,0-3.2-1.9-3.2c-1.9,0-2.2,1.5-2.2,3.1v5.9H9.8V9.4h3.5V11h0.1c0.5-1,1.7-1.9,3.5-1.9c3.8,0,4.4,2.5,4.4,5.7V21.3z"/>
</svg>
