<?xml version="1.0" encoding="utf-8"?>
<!-- Generator: Adobe Illustrator 23.0.2, SVG Export Plug-In . SVG Version: 6.00 Build 0)  -->
<svg version="1.1" id="Layer_1" xmlns="http://www.w3.org/2000/svg" xmlns:xlink="http://www.w3.org/1999/xlink" x="0px" y="0px"
	 viewBox="0 0 40 40" style="enable-background:new 0 0 40 40;" xml:space="preserve">
<style type="text/css">
	.st0{fill:#1E3360;}
</style>
<path class="st0" d="M37,0H3c-1.8,0-3,1.3-3,2.9v34.2c0,1.6,1.3,2.9,3,2.9H37c1.6,0,3-1.3,3-2.9V2.9C40.1,1.3,38.6,0,37,0z
	 M11.8,34.1H5.8V15h5.9V34.1z M8.9,12.3c-1.9,0-3.5-1.6-3.5-3.5S7,5.3,8.9,5.3s3.5,1.6,3.5,3.5S10.8,12.3,8.9,12.3z M34,34.1h-5.9
	v-9.3c0-2.2,0-5.1-3-5.1s-3.5,2.4-3.5,5v9.4h-5.9V15h5.6v2.6h0.2c0.8-1.6,2.7-3,5.6-3c6.1,0,7,4,7,9.1C34,23.7,34,34.1,34,34.1z"/>
</svg>
