<svg id="Layer_1" data-name="Layer 1" xmlns="http://www.w3.org/2000/svg" viewBox="0 0 71.16 82"><title>logo_b_square_small_final</title><path d="M48,16.67c-1.52-6.29-9.12-6.29-12.08-6.29H25.4V30.62l9.48-.15C42.85,30.62,50,26.94,48,16.67Z"/><path d="M37.94,36.12H25.4V57.39H36.24c4.4,0,12.84-.65,13.26-12.2C49.08,37.88,43.8,36.12,37.94,36.12Z"/><path d="M0,0V69.27H71.16V0ZM38,63.18H14.83V57.37H18.7v-47H14.83V5.15H36.89c11.45,0,20,3.89,19.94,13.91,0,7.52-3.44,11.54-6.75,13.47a13.92,13.92,0,0,1,9.17,13.39C59.1,57.65,51,63.18,38,63.18Z"/><path d="M60.4,74.49a5.15,5.15,0,0,0-1.12-1.68,5,5,0,0,0-1.69-1.07,5.86,5.86,0,0,0-2.19-.4,5.8,5.8,0,0,0-2.1.4,5.07,5.07,0,0,0-1.7,1.08,4.86,4.86,0,0,0-1.12,1.68,6,6,0,0,0,0,4.32,5,5,0,0,0,2.81,2.79,6.09,6.09,0,0,0,4.29,0,5,5,0,0,0,1.7-1.1,5.24,5.24,0,0,0,1.12-1.7A6,6,0,0,0,60.4,74.49ZM59,78.25a3.9,3.9,0,0,1-.77,1.3,3.64,3.64,0,0,1-1.22.87,3.89,3.89,0,0,1-1.61.32,3.76,3.76,0,0,1-1.58-.32,3.46,3.46,0,0,1-1.2-.87,3.9,3.9,0,0,1-.77-1.3,4.79,4.79,0,0,1-.27-1.59,4.63,4.63,0,0,1,.27-1.57,3.9,3.9,0,0,1,.77-1.3,3.62,3.62,0,0,1,1.2-.88,3.76,3.76,0,0,1,1.58-.32,3.82,3.82,0,0,1,1.6.32,3.77,3.77,0,0,1,1.21.88,3.9,3.9,0,0,1,.77,1.3,4.63,4.63,0,0,1,.27,1.57A4.51,4.51,0,0,1,59,78.25Z"/><path d="M8,77.9a2.28,2.28,0,0,0-.47-.74,2.42,2.42,0,0,0-.72-.51,3.18,3.18,0,0,0-.9-.25h0a2.49,2.49,0,0,0,1.29-.79,2.1,2.1,0,0,0,.49-1.42A2.43,2.43,0,0,0,7.4,73a2.31,2.31,0,0,0-.73-.79,3,3,0,0,0-1-.43,5,5,0,0,0-1.15-.13H.08v1.19H1v7.77H.08v1.18H4.34a6.12,6.12,0,0,0,1.48-.18A3.85,3.85,0,0,0,7,81a2.51,2.51,0,0,0,1.12-2.17A2.62,2.62,0,0,0,8,77.9ZM2.4,72.74H4a3.15,3.15,0,0,1,1.62.35,1.24,1.24,0,0,1,.6,1.17,1.4,1.4,0,0,1-.59,1.2,1.86,1.86,0,0,1-.64.29,3.31,3.31,0,0,1-.77.09H2.4Zm4.1,6.9a1.61,1.61,0,0,1-.59.54,2.66,2.66,0,0,1-.82.28,5.47,5.47,0,0,1-.9.08H2.4V77.09H4.3a3.24,3.24,0,0,1,1.78.4,1.45,1.45,0,0,1,.62,1.3A1.49,1.49,0,0,1,6.5,79.64Z"/><path d="M26.79,80.56l-2.28-7.89A1.58,1.58,0,0,0,23,71.6H22.2a1.58,1.58,0,0,0-1.49,1.06l-2.31,7.9h-.55v1.18h2.34V80.56h-.42l.4-1.31H25l.4,1.31h-.29v1.18H27.4V80.56ZM20.4,78l1.31-4.36a.76.76,0,0,1,.62-.52,1.34,1.34,0,0,1,.4,0,.76.76,0,0,1,.63.56L24.43,78Z"/><path d="M16.5,80.56l-2.1-3.47a3.19,3.19,0,0,0,1.78-.87,2.42,2.42,0,0,0,.69-1.8,2.85,2.85,0,0,0-.29-1.31,2.33,2.33,0,0,0-.78-.87,3.37,3.37,0,0,0-1.17-.5,6.5,6.5,0,0,0-1.39-.15H9v1.19h1v7.77H9v1.19h2.4V77.23h1.52l1.9,3.33H14.6v1.18h2.34V80.56ZM13,76H11.4V72.8h1.73a5.12,5.12,0,0,1,.87.08,2.08,2.08,0,0,1,.72.26,1.47,1.47,0,0,1,.52,2,1.52,1.52,0,0,1-.52.52A2.27,2.27,0,0,1,14,76,4.88,4.88,0,0,1,13,76Z"/><polygon points="37.94 71.59 35.6 71.59 35.6 72.78 36.09 72.78 36.09 79.71 36.06 79.71 30.76 71.6 28.91 71.6 28.91 80.56 28.48 80.56 28.48 81.76 30.82 81.76 30.82 80.56 30.33 80.56 30.33 73.47 30.36 73.47 35.72 81.74 37.51 81.74 37.51 72.78 37.94 72.78 37.94 71.59"/><polygon points="71.14 71.59 68.8 71.59 68.8 72.78 69.29 72.78 69.29 79.71 69.26 79.71 63.96 71.6 62.11 71.6 62.11 80.56 61.68 80.56 61.68 81.76 64.02 81.76 64.02 80.56 63.53 80.56 63.53 73.47 63.56 73.47 68.91 81.74 70.7 81.74 70.7 72.78 71.14 72.78 71.14 71.59"/><path d="M48.69,74.37a4.65,4.65,0,0,0-1.29-1.63,5.25,5.25,0,0,0-1.76-.9,6.77,6.77,0,0,0-2-.29H39.28v1.19h1v7.78h-1v1.22h4.43a6.46,6.46,0,0,0,1.95-.31,5.52,5.52,0,0,0,1.74-.93,4.75,4.75,0,0,0,1.27-1.58,5.63,5.63,0,0,0,0-4.55Zm-1.35,3.92a3.37,3.37,0,0,1-.88,1.2,4.14,4.14,0,0,1-1.35.74,5.16,5.16,0,0,1-1.7.26H41.65V72.83H43.4a5.43,5.43,0,0,1,1.7.25,3.94,3.94,0,0,1,1.35.73,3.37,3.37,0,0,1,.88,1.2,4.49,4.49,0,0,1,0,3.28Z"/></svg>