<?xml version="1.0" standalone="no"?>
<!DOCTYPE svg PUBLIC "-//W3C//DTD SVG 20010904//EN"
 "http://www.w3.org/TR/2001/REC-SVG-20010904/DTD/svg10.dtd">
<svg version="1.0" xmlns="http://www.w3.org/2000/svg"
 width="656.000000pt" height="656.000000pt" viewBox="0 0 656.000000 656.000000"
 preserveAspectRatio="xMidYMid meet">
<metadata>
Created by potrace 1.11, written by Peter Selinger 2001-2013
</metadata>
<g transform="translate(0.000000,656.000000) scale(0.100000,-0.100000)"
fill="#000000" stroke="none">
<path d="M430 3790 c0 -1523 3 -2770 8 -2771 22 -3 5660 -4 5675 -1 16 4 17
144 17 2773 l0 2769 -2850 0 -2850 0 0 -2770z m3200 2346 c53 -4 107 -9 120
-10 27 -4 119 -16 160 -22 53 -8 126 -23 143 -30 10 -4 26 -8 35 -8 36 -4 160
-43 232 -73 186 -79 278 -139 400 -263 133 -135 214 -305 247 -520 13 -81 5
-414 -11 -461 -3 -8 -8 -30 -11 -49 -3 -19 -7 -39 -9 -45 -2 -5 -6 -23 -10
-40 -42 -168 -154 -368 -274 -491 -38 -39 -157 -135 -198 -160 -18 -11 -17
-13 11 -23 54 -21 169 -82 202 -107 17 -13 34 -24 37 -24 4 0 21 -12 38 -27
240 -207 373 -437 416 -723 9 -61 9 -312 -1 -380 -4 -30 -9 -67 -11 -82 -12
-87 -61 -245 -102 -333 -144 -307 -400 -524 -764 -646 -86 -28 -243 -67 -300
-74 -14 -2 -38 -6 -55 -9 -16 -3 -55 -8 -85 -11 -30 -4 -73 -9 -95 -11 -55 -7
-2125 -11 -2126 -4 -1 3 -2 105 -3 228 -2 198 0 223 15 227 9 3 65 5 125 4 60
0 123 0 140 0 l30 1 0 1880 0 1880 -120 -1 c-67 0 -137 0 -156 0 l-35 1 1 203
c1 111 2 204 3 207 2 8 1905 4 2011 -4z"/>
<path d="M2465 4922 l0 -807 335 0 c184 0 344 3 355 6 10 3 34 3 52 -1 17 -4
34 -5 37 -3 3 3 49 7 103 9 54 1 112 5 128 8 120 19 131 21 180 35 22 6 43 10
48 11 4 0 21 7 37 15 16 8 31 15 32 14 8 -2 78 29 163 74 151 80 304 288 339
459 3 13 9 46 15 73 10 51 7 299 -4 345 -4 14 -9 40 -11 59 -6 45 -47 140 -84
195 -60 89 -162 173 -258 213 -77 32 -87 36 -99 39 -6 1 -27 7 -45 13 -42 13
-148 32 -213 38 -27 3 -289 7 -580 9 l-531 3 1 -807z"/>
<path d="M2485 3672 c-21 -3 -21 -4 -21 -852 0 -580 4 -850 11 -851 70 -3 993
1 1026 5 24 3 64 8 89 11 55 6 135 21 135 26 0 1 9 3 20 4 45 5 189 69 257
114 157 102 262 243 328 441 12 36 23 76 26 90 2 14 7 39 11 55 21 102 28 261
13 342 -45 263 -174 433 -398 527 -118 50 -210 70 -377 82 -88 7 -1080 12
-1120 6z"/>
<path d="M4760 843 c-89 -23 -141 -53 -206 -119 -79 -82 -109 -165 -107 -304
0 -82 9 -124 37 -185 26 -58 32 -65 94 -127 38 -38 129 -85 186 -96 36 -7 178
-6 220 1 44 8 147 63 185 98 62 59 95 123 119 229 7 33 7 147 0 185 -8 43 -34
103 -69 157 -84 131 -292 204 -459 161z m249 -114 c149 -80 210 -295 130 -455
-76 -151 -246 -210 -410 -141 -39 16 -119 93 -119 114 0 7 -4 13 -8 13 -7 0
-30 51 -40 90 -9 36 -8 117 3 164 28 119 104 205 204 232 72 19 188 11 240
-17z"/>
<path d="M1151 793 c-1 -49 -1 -50 26 -48 55 3 53 16 53 -316 l0 -309 -40 0
-40 0 0 -48 0 -48 95 0 c78 1 95 3 96 16 0 8 1 89 2 180 l2 165 59 0 c41 0 62
-5 68 -15 140 -244 136 -235 128 -278 -4 -22 -3 -47 1 -54 11 -18 179 -19 180
-1 1 7 1 24 1 38 0 42 -1 45 -19 45 -12 0 -44 43 -95 129 -71 118 -91 160 -70
147 8 -5 64 20 105 48 75 51 101 171 57 261 -26 54 -54 77 -128 106 -51 20
-80 23 -268 27 l-211 4 -2 -49z m456 -89 c66 -51 74 -126 17 -185 -25 -26 -76
-47 -99 -40 -24 7 -85 5 -85 -2 0 -5 -5 -5 -11 -1 -6 3 -28 6 -48 6 l-37 -1 1
122 c1 67 2 125 3 128 1 3 52 5 113 3 102 -2 113 -4 146 -30z"/>
<path d="M2770 832 l-26 -3 1 -356 c0 -320 -2 -357 -16 -360 -12 -4 -17 -17
-17 -51 l-2 -47 92 1 92 1 1 46 c1 39 -2 47 -17 47 -10 0 -19 3 -19 8 -4 22
-5 548 -1 556 4 7 39 -44 172 -250 24 -38 76 -118 115 -179 40 -60 84 -130
100 -155 40 -64 43 -65 118 -66 65 0 67 0 68 25 0 14 0 173 0 353 0 303 2 328
18 333 13 4 17 15 16 45 -1 22 -4 42 -7 45 -5 6 -75 8 -151 6 -27 -1 -28 -3
-26 -50 2 -37 6 -48 18 -47 14 1 17 -23 21 -178 3 -98 2 -183 -1 -188 -4 -6
-4 -22 0 -37 3 -14 4 -53 1 -85 l-5 -59 -15 29 c-8 16 -18 31 -21 34 -6 5
-160 238 -169 255 -3 6 -51 80 -108 167 l-104 156 -51 4 c-29 1 -63 2 -77 0z"/>
<path d="M3615 832 c-48 -4 -54 -12 -46 -60 6 -34 9 -37 41 -37 l35 0 0 -310
0 -310 -40 -5 c-38 -5 -39 -6 -38 -44 0 -21 5 -41 11 -45 6 -4 103 -6 216 -5
262 3 339 23 437 111 41 37 106 123 93 123 -3 0 -2 6 4 13 11 13 17 38 30 117
8 53 8 58 -2 130 -5 30 -18 75 -29 99 -22 47 -93 126 -138 154 -41 25 -138 57
-194 63 -58 7 -321 11 -380 6z m415 -112 c91 -24 168 -90 190 -163 19 -62 21
-179 5 -235 -38 -125 -165 -200 -340 -200 -42 0 -79 -3 -82 -6 -13 -13 -43 16
-43 42 0 15 0 34 0 42 -1 8 -1 51 -1 95 0 44 0 89 0 100 0 11 0 54 1 95 1 41
1 80 0 85 -4 21 3 156 9 161 7 7 227 -7 261 -16z"/>
<path d="M5405 815 c-3 -11 -3 -172 -2 -358 2 -317 1 -338 -16 -343 -15 -5
-17 -15 -15 -52 l3 -46 78 -1 c42 0 82 2 89 6 6 4 12 26 13 48 2 36 -1 41 -20
41 -21 0 -21 1 -21 280 0 154 3 280 7 280 7 0 49 -53 49 -63 0 -2 35 -58 78
-123 43 -66 97 -148 119 -184 23 -36 47 -70 52 -77 6 -7 11 -15 11 -18 0 -3
26 -45 59 -93 l58 -87 72 -1 71 0 2 356 c2 277 6 354 16 352 12 -2 13 1 15 64
l0 37 -88 -1 c-48 -1 -90 -3 -92 -6 -3 -3 -6 -21 -7 -41 -1 -35 7 -50 29 -50
6 0 11 -99 12 -273 1 -151 0 -272 -2 -270 -2 2 -203 306 -273 414 -37 56 -53
80 -62 94 -6 8 -27 41 -47 73 -20 31 -43 57 -52 58 -134 4 -132 5 -136 -16z"/>
<path d="M2133 808 c-23 -17 -36 -39 -51 -88 -25 -78 -36 -113 -37 -120 -1 -3
-9 -32 -19 -65 -10 -33 -20 -67 -21 -75 -2 -8 -13 -46 -25 -85 -22 -72 -60
-202 -64 -220 -8 -29 -20 -45 -35 -45 -25 0 -27 -89 -2 -91 9 -1 50 -2 90 -3
l75 -1 3 48 c2 36 0 47 -12 47 -18 0 -18 0 -4 55 7 26 18 46 28 49 9 2 97 3
195 2 l179 -1 13 -45 c9 -30 10 -48 3 -56 -6 -7 -9 -32 -7 -56 l3 -43 75 0
c106 -1 106 -1 105 48 -1 35 -4 42 -25 47 -22 5 -30 21 -68 150 -51 173 -47
158 -71 245 -49 173 -73 249 -88 272 -25 38 -65 53 -140 53 -54 0 -75 -4 -100
-22z m147 -113 c10 -12 80 -269 94 -349 4 -24 2 -26 -32 -27 -41 0 -162 1
-177 3 -5 0 -14 -1 -20 -2 -5 -1 -25 -2 -43 -1 -30 1 -33 3 -29 29 3 15 21 81
42 147 20 66 39 131 41 145 10 49 32 70 73 70 22 0 44 -6 51 -15z"/>
<path d="M437 793 c-2 -13 0 -20 5 -16 6 3 6 -2 0 -13 -15 -29 -3 -44 34 -44
l34 0 -2 -312 -3 -313 -25 0 c-36 0 -46 -10 -44 -42 1 -15 3 -34 3 -41 1 -10
44 -12 201 -12 110 1 215 6 233 11 64 18 167 105 190 159 15 37 16 141 2 170
-7 14 -24 35 -37 47 -27 26 -93 55 -102 46 -3 -4 -6 -2 -6 3 0 5 15 16 33 25
44 21 87 88 91 140 6 81 -40 159 -113 192 -42 19 -67 21 -268 22 l-222 1 -4
-23z m383 -57 c58 -11 72 -18 91 -53 15 -25 16 -53 6 -105 -9 -51 -84 -82
-199 -83 -71 0 -89 3 -92 15 -3 8 -4 65 -4 125 l1 111 76 -1 c42 -1 96 -5 121
-9z m4 -341 c101 -13 145 -56 142 -135 -3 -60 -18 -84 -63 -104 -21 -9 -45
-21 -53 -25 -13 -7 -51 -10 -155 -12 -5 0 -24 1 -41 2 l-32 2 1 136 1 136 24
5 c29 6 118 3 176 -5z"/>
</g>
</svg>
